Coordinates
version=1
nRows=24
nColumns=22
inDegrees=yes

Units are S.I. units (second, meters, Newtons, ...)
If the header above contains a line with 'inDegrees', this indicates whether rotational values are in degrees (yes) or radians (no).

endheader
time	pelvis_tilt	pelvis_list	pelvis_rotation	pelvis_tx	pelvis_ty	pelvis_tz	hip_flexion_r	hip_adduction_r	hip_rotation_r	knee_angle_r	ankle_angle_r	subtalar_angle_r	hip_flexion_l	hip_adduction_l	hip_rotation_l	knee_angle_l	ankle_angle_l	subtalar_angle_l	lumbar_extension	lumbar_bending	lumbar_rotation
      0.01000000	     -3.46923851	     -3.20674225	     -3.87740769	     -1.17063627	      0.95498266	     -0.03963614	     10.02490939	      2.53899658	     -0.70600783	    -19.47795790	     12.25537532	     -3.66319675	     10.50446142	     -5.85602583	     -7.55629675	    -23.08627078	     13.40508820	     -2.26687486	     -4.31405902	      2.21476573	     -0.07694493
      0.02000000	     -3.46782467	     -3.20195244	     -3.88748285	     -1.17063137	      0.95497996	     -0.03961053	     10.02626395	      2.53579459	     -0.70508388	    -19.48353905	     12.24998342	     -3.66375281	     10.50148541	     -5.85168060	     -7.55601296	    -23.08935972	     13.40743123	     -2.26710527	     -4.31653900	      2.21695923	     -0.07930482
      0.03000000	     -3.45853113	     -3.19482125	     -3.89369397	     -1.17065811	      0.95498576	     -0.03957489	     10.03149851	      2.53228960	     -0.68693646	    -19.50802556	     12.22857925	     -3.66136468	     10.49510577	     -5.84606775	     -7.55745940	    -23.09648453	     13.42060396	     -2.26686175	     -4.33415858	      2.21251115	     -0.09095709
      0.04000000	     -3.45727235	     -3.19222026	     -3.90342925	     -1.17065764	      0.95498553	     -0.03954319	     10.03256170	      2.53225879	     -0.68441295	    -19.50972598	     12.22663947	     -3.66072377	     10.49294408	     -5.84430305	     -7.55625064	    -23.10020562	     13.42275580	     -2.26622245	     -4.33767365	      2.21677390	     -0.09578389
      0.05000000	     -3.44524244	     -3.19185441	     -3.91146542	     -1.17069030	      0.95499348	     -0.03950234	     10.03598646	      2.53754161	     -0.65577698	    -19.53654377	     12.21574313	     -3.65691179	     10.48644503	     -5.84697107	     -7.55654372	    -23.11306535	     13.43809269	     -2.26176906	     -4.35935038	      2.22137880	     -0.11634482
      0.06000000	     -3.44354750	     -3.19056096	     -3.92407512	     -1.17069642	      0.95499424	     -0.03946673	     10.03797986	      2.53926545	     -0.65254281	    -19.53842124	     12.21489241	     -3.65631440	     10.48423813	     -5.84638320	     -7.55571697	    -23.11763694	     13.44077186	     -2.26019062	     -4.36456100	      2.22524333	     -0.12153489
      0.07000000	     -3.43053340	     -3.19378574	     -3.93628985	     -1.17073624	      0.95500275	     -0.03942175	     10.04439404	      2.54955399	     -0.61928057	    -19.57105891	     12.20965996	     -3.65417753	     10.47728022	     -5.85369952	     -7.56353771	    -23.13187202	     13.45428641	     -2.25170385	     -4.38833536	      2.23203685	     -0.13650272
      0.08000000	     -3.42992458	     -3.19313320	     -3.94996254	     -1.17075306	      0.95500348	     -0.03938422	     10.04729512	      2.55193848	     -0.61756476	    -19.57104265	     12.20970190	     -3.65403177	     10.47656535	     -5.85416311	     -7.56399778	    -23.13459404	     13.45546410	     -2.25011244	     -4.39339057	      2.23318104	     -0.13986921
      0.09000000	     -3.42104089	     -3.19578363	     -3.97208232	     -1.17079610	      0.95500901	     -0.03933398	     10.05885285	      2.56188881	     -0.58389557	    -19.60422839	     12.20592372	     -3.65356704	     10.47089145	     -5.86261133	     -7.58445314	    -23.14549975	     13.46031135	     -2.24044929	     -4.41032396	      2.23901487	     -0.14718979
      0.10000000	     -3.42265830	     -3.19534958	     -3.98291150	     -1.17083804	      0.95500877	     -0.03929959	     10.06373897	      2.56452551	     -0.58317174	    -19.60118719	     12.20597679	     -3.65352706	     10.47295437	     -5.86396328	     -7.58691983	    -23.14434288	     13.46064418	     -2.23923049	     -4.41722014	      2.23640666	     -0.14854208
      0.11000000	     -3.43322534	     -3.18804251	     -4.03645341	     -1.17089321	      0.95499327	     -0.03919514	     10.09606618	      2.57169533	     -0.51649615	    -19.62771692	     12.19633410	     -3.65405948	     10.47945146	     -5.87560502	     -7.67553938	    -23.14688186	     13.46123995	     -2.21145713	     -4.41170721	      2.22397069	     -0.10929734
      0.12000000	     -3.43513036	     -3.18770753	     -4.04414806	     -1.17094687	      0.95499385	     -0.03917126	     10.10164043	      2.57379472	     -0.51694830	    -19.62521863	     12.19641446	     -3.65415077	     10.48136555	     -5.87665357	     -7.67672302	    -23.14344697	     13.46154693	     -2.21070877	     -4.41777711	      2.22140784	     -0.11380015
      0.13000000	     -3.44317656	     -3.18411600	     -4.05960023	     -1.17099256	      0.95498763	     -0.03913300	     10.12266678	      2.57471677	     -0.50773446	    -19.63984245	     12.18887303	     -3.65467244	     10.48183268	     -5.87949845	     -7.70899546	    -23.12862427	     13.46255683	     -2.20422570	     -4.41235191	      2.21603923	     -0.13453010
      0.14000000	     -3.46167540	     -3.17361963	     -4.08320218	     -1.17104925	      0.95496524	     -0.03907830	     10.15439957	      2.56902468	     -0.50278174	    -19.64907167	     12.17892399	     -3.65658974	     10.49774516	     -5.88110133	     -7.76477512	    -23.12195273	     13.46394621	     -2.19180547	     -4.39629644	      2.19768244	     -0.12568983
      0.15000000	     -3.46443253	     -3.17396630	     -4.08792913	     -1.17112150	      0.95496702	     -0.03905544	     10.16134225	      2.57109664	     -0.50346606	    -19.64587729	     12.17963792	     -3.65697374	     10.50172087	     -5.88374816	     -7.76672203	    -23.11766498	     13.46419760	     -2.19105382	     -4.40351908	      2.19261142	     -0.12700671
      0.16000000	     -3.49829515	     -3.15967047	     -4.12168375	     -1.17119474	      0.95491650	     -0.03898309	     10.22156454	      2.56351944	     -0.49070361	    -19.67344934	     12.18454038	     -3.67819031	     10.53575194	     -5.88734181	     -7.84690101	    -23.11384397	     13.46185327	     -2.16973565	     -4.37034809	      2.16969885	     -0.10191700
      0.17000000	     -3.50084066	     -3.16097937	     -4.13012451	     -1.17125382	      0.95492105	     -0.03894091	     10.22805001	      2.56713377	     -0.49339104	    -19.66927451	     12.18583172	     -3.67937903	     10.53710516	     -5.89243350	     -7.84775850	    -23.10919570	     13.46198345	     -2.16927684	     -4.37444845	      2.16166570	     -0.10605371
      0.18000000	     -3.53375645	     -3.15038609	     -4.16672581	     -1.17129400	      0.95487493	     -0.03885404	     10.28208698	      2.56336961	     -0.48962441	    -19.69030557	     12.20270778	     -3.73871543	     10.56421770	     -5.89886537	     -7.92115666	    -23.09989559	     13.45486065	     -2.15452021	     -4.33564056	      2.14131095	     -0.08407655
      0.19000000	     -3.53551766	     -3.15244324	     -4.17530701	     -1.17133225	      0.95488047	     -0.03880356	     10.28634203	      2.56763784	     -0.49245470	    -19.68662383	     12.20382592	     -3.74062162	     10.56470855	     -5.90440230	     -7.92076401	    -23.09617494	     13.45483719	     -2.15438068	     -4.33752473	      2.13181675	     -0.08697212
      0.20000000	     -3.55969251	     -3.14715943	     -4.21679632	     -1.17133714	      0.95484805	     -0.03869699	     10.32303111	      2.57275390	     -0.47244296	    -19.69894693	     12.21663293	     -3.83157239	     10.57849530	     -5.91442628	     -7.98344347	    -23.08711214	     13.44578624	     -2.15143819	     -4.30401545	      2.11292496	     -0.05105289
      0.21000000	     -3.56005702	     -3.14936848	     -4.22846034	     -1.17135192	      0.95485304	     -0.03863882	     10.32451592	      2.57810962	     -0.47546831	    -19.69578831	     12.21703235	     -3.83341436	     10.57707431	     -5.91965708	     -7.98066789	    -23.08651276	     13.44590259	     -2.15164327	     -4.30259221	      2.10205590	     -0.05430485
      0.22000000	     -3.56021268	     -3.15167980	     -4.24123991	     -1.17134294	      0.95485530	     -0.03857548	     10.32375631	      2.58411726	     -0.47835744	    -19.69386595	     12.21752998	     -3.83547542	     10.57415688	     -5.92516509	     -7.97854774	    -23.08707094	     13.44592148	     -2.15201068	     -4.29691821	      2.09067209	     -0.05591833
      0.23000000	     -3.56048907	     -3.15404798	     -4.25425415	     -1.17132880	      0.95485645	     -0.03851146	     10.32271289	      2.59060870	     -0.48055273	    -19.69163758	     12.21794883	     -3.83769748	     10.57049191	     -5.93068333	     -7.97717842	    -23.08791881	     13.44633875	     -2.15262868	     -4.28980285	      2.07905436	     -0.05581369
      0.24000000	     -3.57197139	     -3.15821213	     -4.30540985	     -1.17130690	      0.95484409	     -0.03838802	     10.33199433	      2.61145046	     -0.41824611	    -19.68457572	     12.20955137	     -3.89622716	     10.56333909	     -5.94863479	     -8.03116583	    -23.07575977	     13.46209926	     -2.16819640	     -4.26770680	      2.06823704	     -0.00063689
